<?xml version="1.0" standalone="no"?>
<!DOCTYPE svg PUBLIC "-//W3C//DTD SVG 20010904//EN"
 "http://www.w3.org/TR/2001/REC-SVG-20010904/DTD/svg10.dtd">
<svg version="1.0" xmlns="http://www.w3.org/2000/svg"
 width="626.000000pt" height="626.000000pt" viewBox="0 0 626.000000 626.000000"
 preserveAspectRatio="xMidYMid meet">
<metadata>
Created by potrace 1.14, written by Peter Selinger 2001-2017
</metadata>
<g transform="translate(0.000000,626.000000) scale(0.100000,-0.100000)"
fill="#725eed" stroke="none">
<path d="M455 6246 c-126 -42 -208 -110 -259 -216 l-31 -65 0 -2835 0 -2835
31 -65 c50 -104 142 -181 257 -215 45 -13 358 -15 2677 -15 2354 0 2632 2
2679 16 115 34 205 109 255 214 l31 65 0 2835 0 2835 -31 65 c-34 72 -106 148
-169 180 -104 53 69 50 -2769 49 -2140 0 -2638 -3 -2671 -13z m604 -369 c13
-6 34 -25 45 -40 20 -27 21 -41 21 -264 l0 -235 -37 -34 -38 -34 -219 0 c-121
0 -231 4 -244 9 -14 5 -35 25 -48 43 -24 32 -24 37 -24 258 0 321 -11 309 305
309 151 1 222 -3 239 -12z m4620 -1 c15 -8 37 -28 47 -43 17 -25 19 -49 19
-253 0 -221 0 -226 -24 -258 -13 -18 -34 -38 -48 -43 -13 -5 -123 -9 -245 -9
l-220 0 -33 33 c-43 43 -47 73 -43 314 3 176 5 194 24 220 37 50 53 53 282 53
167 0 219 -3 241 -14z m-1019 -291 c63 -33 60 22 60 -1055 0 -1064 2 -1016
-54 -1054 -23 -15 -150 -16 -1536 -16 -1386 0 -1513 1 -1536 16 -56 38 -54
-10 -54 1054 0 1078 -4 1015 59 1053 24 15 157 16 1529 17 1324 0 1506 -2
1532 -15z m-3591 -692 c56 -32 63 -71 59 -317 l-3 -218 -37 -34 -38 -34 -226
0 -227 0 -33 25 c-20 15 -37 40 -44 63 -11 40 -14 380 -4 432 4 18 22 48 41
66 l34 34 224 0 c194 0 227 -2 254 -17z m4634 -17 c19 -18 37 -48 41 -66 10
-52 7 -392 -4 -432 -7 -23 -24 -48 -44 -63 l-33 -25 -227 0 -226 0 -38 34 -37
34 -3 218 c-3 179 -1 225 12 258 27 71 40 74 298 75 l227 1 34 -34z m-4635
-966 c58 -36 64 -65 60 -312 l-3 -220 -37 -34 -38 -34 -229 0 -229 0 -31 26
c-17 14 -35 42 -41 62 -14 52 -12 408 3 452 7 19 27 44 46 57 33 22 42 23 250
23 199 0 219 -2 249 -20z m4611 6 c60 -32 66 -53 69 -261 4 -237 0 -269 -43
-312 l-33 -33 -230 0 c-220 0 -230 1 -257 22 -49 38 -55 69 -55 287 0 317 -7
309 308 310 167 1 219 -2 241 -13z m-4591 -1000 l37 -34 3 -218 c5 -342 13
-334 -310 -334 -229 0 -245 3 -282 53 -19 26 -21 44 -24 220 -4 239 0 271 43
314 l33 33 231 0 231 0 38 -34z m4617 1 c43 -43 47 -75 43 -314 -3 -176 -5
-194 -24 -220 -37 -50 -53 -53 -282 -53 -319 0 -312 -7 -312 311 0 218 6 249
55 287 27 21 37 22 257 22 l230 0 33 -33z m-1051 -272 c70 -33 66 29 66 -989
l0 -916 -34 -38 -34 -37 -1522 0 -1522 0 -34 37 -34 38 0 916 c0 844 1 918 17
945 37 62 -67 59 1571 59 1315 0 1498 -2 1526 -15z m-3566 -709 l37 -34 3
-218 c5 -343 14 -334 -313 -334 l-224 0 -34 34 c-19 18 -37 48 -41 66 -11 57
-6 402 7 440 7 19 27 44 46 57 33 22 41 23 258 23 l223 0 38 -34z m4608 9 c20
-15 37 -40 44 -63 11 -40 14 -380 4 -432 -4 -18 -22 -48 -41 -66 l-34 -34
-224 0 c-323 0 -315 -8 -315 311 0 218 6 249 55 287 27 21 37 22 253 22 l225
0 33 -25z m-4608 -989 l37 -34 3 -218 c5 -342 13 -334 -308 -334 -230 0 -250
4 -286 57 -17 25 -19 49 -19 253 0 221 0 226 24 258 13 19 33 37 45 42 11 5
121 9 244 9 l222 1 38 -34z m4585 25 c14 -5 35 -25 48 -43 24 -32 24 -37 24
-258 0 -320 10 -310 -305 -310 -317 0 -310 -7 -310 311 0 218 6 249 55 287 26
21 37 22 246 22 120 0 229 -4 242 -9z"/>
</g>
</svg>
